<?xml version="1.0" encoding="utf-8"?>
<!-- Generator: Adobe Illustrator 24.1.2, SVG Export Plug-In . SVG Version: 6.00 Build 0)  -->
<svg version="1.1" id="Layer_1" xmlns="http://www.w3.org/2000/svg" xmlns:xlink="http://www.w3.org/1999/xlink" x="0px" y="0px"
	 viewBox="0 0 100 100" style="enable-background:new 0 0 100 100;" xml:space="preserve">
<style type="text/css">
	.st0{fill:#EF4753;}
	.st1{enable-background:new    ;}
	.st2{fill:#FFFFFF;}
</style>
<g>
	<rect x="5" y="5" class="st0" width="90" height="90"/>
	<g class="st1">
		<path class="st2" d="M17.6,40.9l-3.3,19H9.5l3.3-19L17.6,40.9L17.6,40.9z"/>
		<path class="st2" d="M36.8,45h-6.5l-2.6,14.9h-4.8L25.5,45H19l0.7-4.1h17.8L36.8,45z"/>
		<path class="st2" d="M45.2,54.1h-3.1l-1,5.8h-4.8l3.3-19h8c2,0,3.4,0.5,4.2,1.4c0.6,0.7,0.9,1.6,0.9,2.7c0,0.4,0,0.7-0.1,1.2
			l-0.5,3c-0.3,1.5-1,2.7-2.3,3.6C48.7,53.7,47.1,54.1,45.2,54.1z M46.1,45h-2.4l-0.9,5h2.4c1.4,0,2.3-0.6,2.5-1.9l0.2-1.1
			c0-0.2,0-0.4,0-0.6s-0.1-0.6-0.4-0.9S46.8,45,46.1,45z"/>
		<path class="st2" d="M66,49.9c0,0.6-0.1,1.2-0.3,1.7c-0.2,0.6-0.4,1-0.6,1.2l-0.3,0.4h-4c0.4-0.4,0.7-0.9,0.7-1.5
			c0-0.3-0.1-0.6-0.3-0.8c-0.2-0.2-0.5-0.3-0.8-0.3c-0.6,0-1.1,0.3-1.6,0.9l-1.5,8.3h-4.5l2.2-12.7h4.2L58.9,49
			c1-1.4,2.2-2.1,3.6-2.1c1.1,0,2,0.3,2.6,0.8C65.7,48.2,66,49,66,49.9z"/>
		<path class="st2" d="M72.4,56.5c0.4,0,0.8-0.1,1.1-0.3l-0.1,3c-0.8,0.7-1.8,1-2.8,1c-1.6,0-2.6-0.4-3.1-1.1
			c-0.3-0.5-0.5-1-0.5-1.6c0-0.6,0-1,0.1-1.5l1.6-8.9h4.5l-1.5,8.3c0,0.1,0,0.2,0,0.3C71.6,56.3,71.8,56.5,72.4,56.5z M69.1,42.9
			c0-1.1,0.2-1.9,0.7-2.5s1.3-0.8,2.3-0.8c1.5,0,2.2,0.7,2.2,2c0,1.1-0.2,1.9-0.7,2.4c-0.5,0.5-1.3,0.8-2.4,0.8
			C69.9,44.8,69.1,44.2,69.1,42.9z"/>
		<path class="st2" d="M88.2,59.9h-4.9l-1.9-3.7l-3.2,3.7h-4.9l5.7-6.5L75.6,47h5l1.8,3.6l3.1-3.6h5l-5.7,6.4L88.2,59.9z"/>
	</g>
</g>
</svg>
